<svg width="800" height="600" viewBox="0 0 800 600" fill="none" xmlns="http://www.w3.org/2000/svg">
  <rect width="800" height="600" fill="#F3F4F6"/>
  <path d="M400 300C400 355.228 355.228 400 300 400C244.772 400 200 355.228 200 300C200 244.772 244.772 200 300 200C355.228 200 400 244.772 400 300Z" fill="#D1D5DB"/>
  <path d="M400 250C400 266.569 386.569 280 370 280C353.431 280 340 266.569 340 250C340 233.431 353.431 220 370 220C386.569 220 400 233.431 400 250Z" fill="#9CA3AF"/>
  <path d="M300 400V350C300 341.716 306.716 335 315 335H385C393.284 335 400 341.716 400 350V400" stroke="#9CA3AF" stroke-width="20" stroke-linecap="round"/>
</svg>
