<svg role="img" viewBox="0 0 24 24" xmlns="http://www.w3.org/2000/svg"><title>Instagram</title><path d="M12 2.163c3.204 0 3.584.012 4.85.07 1.366.062 2.633.332 3.608 1.308.974.976 1.246 2.243 1.308 3.608.058 1.267.069 1.647.069 4.851s-.011 3.584-.069 4.851c-.062 1.366-.334 2.633-1.308 3.608-.976.974-2.243 1.246-3.608 1.308-1.267.058-1.647.069-4.851.069s-3.584-.011-4.851-.069c-1.366-.062-2.633-.334-3.608-1.308-.974-.976-1.246-2.243-1.308-3.608C2.175 15.648 2.163 15.268 2.163 12s.012-3.584.07-4.851c.062-1.366.332-2.633 1.308-3.608C4.515 2.565 5.782 2.295 7.148 2.233 8.415 2.175 8.796 2.163 12 2.163zm0-2.163C8.736 0 8.332.013 7.052.072 5.775.13 4.602.404 3.677 1.329 2.752 2.254 2.478 3.427 2.42 4.704 2.361 5.984 2.348 6.388 2.348 12s.013 6.016.072 7.296c.058 1.277.332 2.45 1.257 3.375.925.925 2.098 1.199 3.375 1.257C8.332 23.987 8.736 24 12 24s3.668-.013 4.948-.072c1.277-.058 2.45-.332 3.375-1.257.925-.925 1.199-2.098 1.257-3.375.059-1.28.072-1.684.072-7.296s-.013-6.016-.072-7.296c-.058-1.277-.332-2.45-1.257-3.375C19.398.404 18.225.13 16.948.072 15.668.013 15.264 0 12 0zm0 5.838a6.162 6.162 0 1 0 0 12.324 6.162 6.162 0 0 0 0-12.324zm0 10.162a3.999 3.999 0 1 1 0-7.998 3.999 3.999 0 0 1 0 7.998zm6.406-11.845a1.44 1.44 0 1 0 0 2.881 1.44 1.44 0 0 0 0-2.881z"/></svg>
